<?xml version='1.0' encoding='iso-8859-1'?>
<svg version="1.1" xmlns="http://www.w3.org/2000/svg" viewBox="0 0 470.008 470.008" xmlns:xlink="http://www.w3.org/1999/xlink" enable-background="new 0 0 470.008 470.008">
  <g>
    <path d="m136.402,397.496h-30c-4.142,0-7.5,3.358-7.5,7.5s3.358,7.5 7.5,7.5h30c4.142,0 7.5-3.358 7.5-7.5s-3.358-7.5-7.5-7.5z"/>
    <path d="m414.234,7.5c0-4.142-3.357-7.5-7.5-7.5h-300.332c-27.916,0-50.628,22.711-50.628,50.628v368.744c0,27.917 22.711,50.628 50.628,50.628h280.225c0.037,0.001 0.074,0.008 0.111,0.008 0.048,0 0.096-0.007 0.144-0.008h19.852c4.143,0 7.5-3.358 7.5-7.5s-3.357-7.5-7.5-7.5h-15.12c-4.68-11.31-7.055-23.272-7.055-35.628 0-12.357 2.375-24.319 7.055-35.628h15.119c4.143,0 7.5-3.358 7.5-7.5v-368.744zm-14.999,66.893l-59.393-59.393h59.393v59.393zm-328.46-23.765c0-19.646 15.983-35.628 35.628-35.628h3.282v22.5c0,4.142 3.358,7.5 7.5,7.5s7.5-3.358 7.5-7.5v-22.5h193.942l80.607,80.607v192.53l-80.607,80.607h-193.942v-301.244c0-4.142-3.358-7.5-7.5-7.5s-7.5,3.358-7.5,7.5v301.244h-3.282c-13.88,0-26.473,5.614-35.628,14.691v-332.807zm300.999,346.868h-205.371c-4.142,0-7.5,3.358-7.5,7.5s3.358,7.5 7.5,7.5h203.378c-0.142,2.28-0.221,4.571-0.221,6.876s0.079,4.596 0.221,6.876h-263.378c-4.142,0-7.5,3.358-7.5,7.5s3.358,7.5 7.5,7.5h265.371c0.957,4.657 2.219,9.246 3.793,13.752h-269.164c-19.646,0-35.628-15.982-35.628-35.628s15.982-35.628 35.628-35.628h269.164c-1.574,4.506-2.836,9.095-3.793,13.752zm-31.932-28.752l59.393-59.393v59.393h-59.393z"/>
    <path d="m254.459,228.722v24.972h-22.636c-4.142,0-7.5,3.358-7.5,7.5s3.358,7.5 7.5,7.5h22.636v22.55c0,4.142 3.357,7.5 7.5,7.5 4.143,0 7.5-3.358 7.5-7.5v-22.55h22.636c4.143,0 7.5-3.358 7.5-7.5s-3.357-7.5-7.5-7.5h-22.636v-24.972c36.221-3.763 64.557-34.466 64.557-71.666 0-39.732-32.324-72.057-72.057-72.057s-72.057,32.324-72.057,72.057c0.001,37.2 28.336,67.903 64.557,71.666zm7.5-128.722c31.461,0 57.057,25.596 57.057,57.057s-25.596,57.057-57.057,57.057-57.057-25.596-57.057-57.057 25.596-57.057 57.057-57.057z"/>
  </g>
</svg>
